PathFileType	4	(X/Y/Z)	C:\Users\WrightLab\Desktop\Jo\P1_boxCal7.trc
DataRate	CameraRate	NumFrames	NumMarkers	Units	OrigDataRate	OrigDataStartFrame	OrigNumFrames
100.00	100.00	       14	19	mm	100.00	153	       609
Frame#	Time	Headset_Front			Headset_Back			Headset_Left			Headset_Right			Left_Shoulder			Right_Shoulder			Sternum			C7			Left Elbow			Right Elbow			Left Wrist			Right Wrist			Left ASIS			Right ASIS			S2			Left Knee			Right Knee			Left Ankle			Right Ankle			
		X1	Y1	Z1	X2	Y2	Z2	X3	Y3	Z3	X4	Y4	Z4	X5	Y5	Z5	X6	Y6	Z6	X7	Y7	Z7	X8	Y8	Z8	X9	Y9	Z9	X10	Y10	Z10	X11	Y11	Z11	X12	Y12	Z12	X13	Y13	Z13	X14	Y14	Z14	X15	Y15	Z15	X16	Y16	Z16	X17	Y17	Z17	X18	Y18	Z18	X19	Y19	Z19	

153	1.520	-631.48547	1376.68103	-368.41565	-613.83301	1488.02649	-657.20544	-510.64038	1426.53760	-532.73956	-730.29761	1406.59290	-478.43649	-433.21396	1259.14417	-589.35706	-801.91510	1250.59021	-613.70844	-651.37939	1143.83862	-468.87469	-596.35382	1254.49463	-710.76080	-333.03369	943.10681	-581.53729	-870.13068	995.05420	-724.06555	-260.90509	779.00854	-470.58847	-961.75189	767.78821	-720.57104	-553.79645	861.52936	-443.37689	-748.82874	863.30280	-482.92490	-582.94470	867.05542	-772.66144	-458.96875	419.12921	-613.77527	-827.44171	459.65912	-498.50287	-472.39499	72.64088	-750.26630	-870.26147	108.90551	-375.00201	
154	1.530	-633.40784	1373.45056	-365.96527	-617.56647	1486.18726	-648.44086	-513.30023	1425.22437	-525.58508	-733.04858	1404.98315	-468.80725	-437.13098	1257.11902	-582.89972	-805.71606	1248.70886	-604.32050	-653.99536	1142.60925	-459.98932	-601.03064	1252.71448	-701.97412	-335.74313	942.32294	-575.23108	-874.10596	993.53357	-714.57422	-262.19052	777.99005	-464.77261	-965.73724	766.00055	-711.93427	-553.92578	861.24695	-434.16547	-750.66467	861.91644	-472.70526	-587.50897	865.63306	-764.11938	-460.83456	418.60742	-608.79028	-830.90204	458.07800	-488.69168	-472.37915	74.08131	-750.15381	-872.91003	109.64736	-361.28687	
155	1.540	-634.99036	1371.47388	-358.95160				-516.81085	1422.55554	-516.84869	-735.16473	1403.88757	-459.34961	-440.91367	1255.25647	-576.21228	-809.70685	1246.97009	-593.98560	-656.61334	1141.64587	-450.07452	-605.82336	1251.00720	-693.55731	-338.67584	940.73071	-568.97168	-878.02271	992.02618	-704.75562	-263.75406	776.52234	-459.45984	-969.46179	764.64905	-701.82019	-556.93304	858.91577	-425.41776	-753.01740	860.02991	-462.62634	-591.78180	863.73779	-755.15924	-462.79654	418.26437	-603.93390	-833.17120	456.44006	-477.06772	-472.86664	75.28387	-748.81866	-875.03754	109.45052	-350.70364	
156	1.550	-636.98102	1373.42920	-340.86252	-625.21930	1482.76123	-631.00244	-520.19019	1421.41919	-509.23715	-738.18427	1403.28345	-449.60132	-444.47336	1254.33350	-569.93439	-814.19714	1245.57947	-584.51227	-658.99695	1140.37463	-441.33859	-610.65302	1249.44702	-685.06110	-342.02234	939.40515	-562.49402	-882.37115	990.28217	-694.87689	-264.73047	775.43115	-454.78625	-973.33496	762.54858	-692.50018	-557.67712	858.68854	-414.25742	-756.06616	859.39001	-452.21561	-595.88086	861.31409	-745.70605	-464.87036	417.71411	-598.49750	-836.39807	456.32507	-465.43863	-473.27426	75.97485	-748.34808	-877.04956	103.92451	-346.23306	
157	1.560	-639.26801	1372.67017	-332.21732	-629.12177	1481.59937	-622.16687	-523.27338	1419.51941	-500.49414	-741.51263	1403.14111	-440.60458	-448.19360	1252.87671	-562.45886	-818.29041	1243.62695	-574.08612	-661.91504	1139.39026	-431.51355	-615.53729	1247.83862	-676.29840	-345.62064	937.13788	-556.67950	-886.47333	988.24921	-684.74524	-266.48923	774.16711	-450.17032	-977.52966	760.93640	-681.63318	-559.63202	856.72913	-405.44040	-758.24579	858.00372	-440.74930	-600.49982	859.24744	-736.85522	-467.06015	416.67270	-591.01776	-838.36322	455.65387	-452.81506	-472.94403	78.42624	-747.22070	-878.45801	103.88223	-334.18686	
158	1.570	-640.25812	1371.11145	-322.49612	-633.08459	1480.25024	-613.34595	-526.30902	1417.87402	-492.92593	-744.62750	1402.27734	-430.72998	-451.90771	1250.94385	-555.14044	-822.45166	1242.47266	-564.41681	-665.42529	1137.81433	-423.19449	-620.50269	1246.34460	-667.57367	-349.35635	935.86060	-551.07800	-891.30475	986.60004	-674.09290	-267.95178	773.10608	-446.31647	-981.73657	759.08331	-671.93756	-562.64471	855.38800	-397.77466	-760.27997	856.20593	-430.55988	-605.38312	857.65192	-727.21637	-469.34265	416.90952	-585.57135	-840.32220	455.13846	-440.29886	-474.47827	80.47186	-745.84283	-879.72473	99.54574	-328.88284	
159	1.580	-643.55798	1368.96326	-321.92612	-637.16235	1479.16565	-604.45123	-529.23029	1416.56287	-485.63571	-747.39972	1402.02319	-421.05954	-455.56677	1249.84033	-547.46265	-826.74347	1240.88647	-553.99341	-666.28418	1136.32971	-412.35315	-625.43506	1245.07556	-658.54694	-352.74979	935.15344	-545.52820	-895.75128	985.26764	-663.51343	-269.96524	771.92480	-442.30118	-986.43176	757.85785	-661.44781	-565.46417	854.63617	-389.87360	-763.00342	854.98779	-419.42923	-610.16730	855.94757	-717.54150	-471.56873	416.03748	-578.08984	-842.07904	453.48819	-428.17722	-474.47958	82.08043	-744.50067	-880.70374	94.59949	-326.26645	
160	1.590	-645.99811	1367.80127	-312.58929	-641.13397	1478.28491	-596.03149	-532.61682	1415.63660	-476.84665	-750.04773	1401.00598	-411.14816	-459.68188	1248.38428	-540.45648	-830.87915	1239.47363	-543.82025	-670.19354	1135.67749	-403.38477	-630.46356	1243.77502	-649.54309	-356.23923	933.93945	-540.99115	-900.30817	984.07520	-652.90369	-272.26224	770.91516	-439.63535	-990.48706	756.43848	-650.08423	-566.83337	854.66205	-378.26627	-765.95203	854.66119	-410.09158	-615.32648	854.46692	-708.12970	-473.92413	415.77603	-570.70728	-844.45959	452.23071	-415.65836	-475.39600	85.35083	-742.68811	-881.98315	89.99361	-323.03625	
161	1.600	-647.56689	1369.68579	-295.97556	-645.23688	1477.45215	-587.00623	-536.29620	1414.44434	-469.30829	-753.33154	1401.32849	-401.80978	-463.43652	1248.12488	-533.04114	-835.40436	1238.50598	-533.35083	-672.86090	1135.20203	-393.21149	-635.48041	1242.90320	-640.35474	-361.02072	932.50049	-534.72852	-904.89313	982.57745	-641.89728	-274.48889	769.54071	-436.56702	-994.97308	754.82080	-638.91254	-569.84943	854.47809	-368.48895	-769.44446	854.71997	-398.05801	-619.81311	853.35931	-698.20862	-476.38068	415.66422	-562.09119	-845.95673	449.97729	-404.32687	-475.71078	89.26289	-741.27612	-882.93774	87.44859	-318.12259	
162	1.610	-649.46057	1369.96741	-287.32028	-649.40271	1477.14087	-578.03656	-539.62274	1413.62561	-459.91663	-756.22864	1400.88025	-391.98285	-467.50308	1247.27356	-524.84924	-839.51172	1237.57642	-522.57452	-676.51770	1135.55615	-384.02667	-640.53125	1242.27649	-631.71936	-365.03116	932.62183	-530.74756	-909.32928	981.51904	-630.69397	-276.79535	768.47870	-434.23978	-999.89801	754.45789	-628.23553	-573.30634	853.55078	-359.31656	-772.66583	853.91748	-386.39130	-625.26892	852.40320	-688.09607	-479.42822	414.84879	-551.86511	-848.39386	447.96124	-392.19083	-476.28802	92.51302	-737.53754	-884.07849	86.88457	-313.83115	
163	1.620	-652.43030	1366.42480	-286.40350	-653.42639	1477.52917	-568.76953	-543.33160	1413.65796	-452.12225	-759.36609	1401.37646	-382.41632	-471.26547	1247.18152	-517.68323	-843.88245	1237.37585	-511.60800	-679.41046	1135.69189	-374.87424	-645.43097	1242.17261	-621.93164	-370.06027	932.07794	-525.83704	-914.40723	980.70038	-619.63220	-279.44016	767.70410	-432.14902	-1004.06537	753.25348	-616.53448	-576.69543	852.99097	-349.57043	-775.43567	853.62421	-375.17694	-630.37708	851.78851	-677.42767	-482.85989	414.59659	-542.12933	-851.45502	446.52322	-381.51047	-476.29974	97.46638	-734.61237	-886.54266	85.71902	-308.53522	
164	1.630	-653.84729	1370.21606	-267.47394	-657.45105	1478.19238	-559.18036	-546.72278	1414.47546	-444.50653	-762.50476	1402.18542	-372.07654	-475.80450	1247.40710	-508.94327	-848.24835	1237.09473	-500.93512	-681.22076	1135.13733	-363.96185	-650.46155	1242.51294	-613.30603	-374.63501	931.77277	-521.56854	-918.61218	979.66321	-606.98059	-282.65533	767.01202	-429.79248	-1008.22687	752.51758	-603.66504	-579.26978	854.14801	-338.78961	-778.62402	853.72040	-364.85947	-635.78491	851.66840	-667.53455	-485.73221	413.31824	-530.93597	-854.87726	445.38751	-371.44046	-476.53387	102.65434	-731.39490	-888.91943	83.49020	-303.48245	
165	1.640	-656.35370	1371.10779	-258.29132	-661.49890	1479.09119	-549.69080	-550.36993	1414.31848	-434.13931	-765.43341	1403.68762	-362.03073	-479.04340	1248.21741	-501.74408	-852.63007	1237.29126	-489.82254	-685.04541	1136.80029	-354.97882	-655.44501	1242.89038	-603.22101	-378.79367	932.16913	-517.51288	-923.77661	979.62396	-596.18774	-285.89673	766.54944	-428.42770	-1012.28503	752.34845	-591.15118	-582.88391	854.43134	-330.21506	-782.09644	855.16705	-353.69839	-640.32550	851.92706	-657.78961	-488.28354	413.86932	-519.88055	-856.75476	446.29865	-364.22244	-478.50177	108.00761	-726.36151	-891.55408	82.46056	-300.78534	
166	1.650	-658.30475	1372.28418	-249.77785	-665.51825	1480.08618	-540.01312	-553.43182	1415.39246	-426.28391	-768.54010	1404.68372	-351.89859	-483.08344	1248.91125	-493.74857	-856.63202	1237.79517	-478.92639	-687.02203	1137.88062	-344.20682	-660.10199	1244.10779	-593.96484	-385.01038	932.53748	-512.11615	-927.84894	979.70074	-583.59863	-289.61252	766.97083	-427.42731	-1016.89801	752.85919	-578.52850	-585.55872	855.10852	-321.34537	-784.15399	854.60406	-341.80588	-645.46393	852.50574	-647.29810	-491.75861	413.03668	-506.16974	-860.33807	446.06683	-355.98560	-479.93222	113.62408	-720.63531	-893.77002	79.93738	-296.06317	
